<svg width="22" height="24" viewBox="0 0 22 24" fill="none" xmlns="http://www.w3.org/2000/svg">
<path fill-rule="evenodd" clip-rule="evenodd" d="M20.3873 17.4463L17.8549 15.1996C17.2737 14.6952 16.4434 14.6494 15.8622 15.1537L13.7034 16.896C13.4543 17.1253 13.0807 17.0795 12.8316 16.8043L9.59349 13.5948L6.68748 10.0184C6.43839 9.74335 6.43839 9.37654 6.60445 9.05559L8.182 6.67135C8.63866 6.02944 8.59715 5.11243 8.14049 4.47052L6.10628 1.67363C5.48356 0.848318 4.36267 0.756617 3.65693 1.53608L1.49817 3.92031C1.16606 4.28712 1 4.79147 1 5.29583C1.20757 9.9726 3.11724 14.4201 5.94022 17.538C8.7632 20.6558 12.7901 22.7649 17.0246 22.9942C17.4812 23.04 17.9379 22.8108 18.27 22.444L20.4288 20.0597C21.2175 19.372 21.176 18.0882 20.3873 17.4463V17.4463Z" stroke="white"/>
<mask id="mask0_0_583" style="mask-type:luminance" maskUnits="userSpaceOnUse" x="0" y="0" width="22" height="24">
<path fill-rule="evenodd" clip-rule="evenodd" d="M20.3873 17.4463L17.8549 15.1996C17.2737 14.6952 16.4434 14.6494 15.8622 15.1537L13.7034 16.896C13.4543 17.1253 13.0807 17.0795 12.8316 16.8043L9.59349 13.5948L6.68748 10.0184C6.43839 9.74335 6.43839 9.37654 6.60445 9.05559L8.182 6.67135C8.63866 6.02944 8.59715 5.11243 8.14049 4.47052L6.10628 1.67363C5.48356 0.848318 4.36267 0.756617 3.65693 1.53608L1.49817 3.92031C1.16606 4.28712 1 4.79147 1 5.29583C1.20757 9.9726 3.11724 14.4201 5.94022 17.538C8.7632 20.6558 12.7901 22.7649 17.0246 22.9942C17.4812 23.04 17.9379 22.8108 18.27 22.444L20.4288 20.0597C21.2175 19.372 21.176 18.0882 20.3873 17.4463Z" fill="white" stroke="white"/>
</mask>
<g mask="url(#mask0_0_583)">
</g>
</svg>
