<svg width="14" height="18" viewBox="0 0 14 18" fill="none" xmlns="http://www.w3.org/2000/svg">
<path d="M6.62105 16.8502L6.95632 16.4792L6.94554 16.4695L6.93421 16.4604L6.62105 16.8502ZM7.41053 16.8502L7.72076 17.2424L7.72952 17.2352L7.41053 16.8502ZM7 0.5C3.38176 0.5 0.5 3.58131 0.5 7.36004H1.5C1.5 4.07946 3.98667 1.5 7 1.5V0.5ZM0.5 7.36004C0.5 9.71312 1.64462 11.9243 2.90998 13.6495C4.1812 15.3827 5.61965 16.687 6.3079 17.2399L6.93421 16.4604C6.29614 15.9477 4.92406 14.7047 3.71634 13.0581C2.50275 11.4035 1.5 9.40238 1.5 7.36004H0.5ZM6.28579 17.2211C6.70884 17.6035 7.29953 17.5754 7.72068 17.2423L7.10037 16.458C7.05408 16.4946 7.01942 16.5 7.00395 16.5C6.99056 16.5 6.97559 16.4966 6.95632 16.4792L6.28579 17.2211ZM7.72952 17.2352C8.41298 16.6689 9.84287 15.3657 11.1064 13.6363C12.3639 11.915 13.5 9.71243 13.5 7.36004H12.5C12.5 9.40308 11.5045 11.3961 10.2989 13.0464C9.09923 14.6884 7.73439 15.9325 7.09153 16.4651L7.72952 17.2352ZM13.5 7.36004C13.5 3.58131 10.6182 0.5 7 0.5V1.5C10.0133 1.5 12.5 4.07946 12.5 7.36004H13.5ZM7 9.49063C5.91132 9.49063 4.97368 8.54105 4.97368 7.32674H3.97368C3.97368 9.04271 5.30973 10.4906 7 10.4906V9.49063ZM4.97368 7.32674C4.97368 6.11243 5.91132 5.16285 7 5.16285V4.16285C5.30973 4.16285 3.97368 5.61077 3.97368 7.32674H4.97368ZM7 5.16285C8.08868 5.16285 9.02632 6.11243 9.02632 7.32674H10.0263C10.0263 5.61077 8.69027 4.16285 7 4.16285V5.16285ZM9.02632 7.32674C9.02632 8.54105 8.08868 9.49063 7 9.49063V10.4906C8.69027 10.4906 10.0263 9.04271 10.0263 7.32674H9.02632Z" fill="black"/>
</svg>
