<svg width="19" height="24" viewBox="0 0 19 24" fill="none" xmlns="http://www.w3.org/2000/svg">
<path d="M8.96316 22.794L9.29289 22.4181L9.28202 22.4086L9.27062 22.3997L8.96316 22.794ZM10.0816 22.794L10.3861 23.1907L10.3949 23.1836L10.0816 22.794ZM9.5 0.5C4.51394 0.5 0.5 4.62835 0.5 9.74506H1.5C1.5 5.1552 5.09132 1.5 9.5 1.5V0.5ZM0.5 9.74506C0.5 12.9269 2.09615 15.9299 3.87806 18.2879C5.66656 20.6546 7.69112 22.4361 8.6557 23.1883L9.27062 22.3997C8.35625 21.6867 6.39923 19.9655 4.67588 17.685C2.94595 15.3958 1.5 12.6069 1.5 9.74506H0.5ZM8.63343 23.1698C9.14674 23.6201 9.86169 23.5931 10.386 23.1906L9.77713 22.3973C9.58568 22.5443 9.40589 22.5172 9.29289 22.4181L8.63343 23.1698ZM10.3949 23.1836C11.3547 22.4118 13.3674 20.6314 15.1449 18.27C16.9157 15.9175 18.5 12.9262 18.5 9.74506H17.5C17.5 12.6076 16.0646 15.3854 14.3459 17.6686C12.6339 19.943 10.6874 21.6652 9.76825 22.4043L10.3949 23.1836ZM18.5 9.74506C18.5 4.62835 14.4861 0.5 9.5 0.5V1.5C13.9087 1.5 17.5 5.1552 17.5 9.74506H18.5ZM9.5 12.8621C7.81858 12.8621 6.42105 11.4487 6.42105 9.69927H5.42105C5.42105 11.979 7.24458 13.8621 9.5 13.8621V12.8621ZM6.42105 9.69927C6.42105 7.94986 7.81858 6.53642 9.5 6.53642V5.53642C7.24458 5.53642 5.42105 7.41955 5.42105 9.69927H6.42105ZM9.5 6.53642C11.1814 6.53642 12.5789 7.94986 12.5789 9.69927H13.5789C13.5789 7.41955 11.7554 5.53642 9.5 5.53642V6.53642ZM12.5789 9.69927C12.5789 11.4487 11.1814 12.8621 9.5 12.8621V13.8621C11.7554 13.8621 13.5789 11.979 13.5789 9.69927H12.5789Z" fill="white"/>
</svg>
