<svg width="21" height="22" viewBox="0 0 21 22" fill="none" xmlns="http://www.w3.org/2000/svg">
<path d="M17.9037 12.3808L17.412 12.2897L17.3583 12.5797L17.5861 12.767L17.9037 12.3808ZM17.9037 9.53556L17.5861 9.14933L17.3583 9.33664L17.412 9.62666L17.9037 9.53556ZM19.4814 8.23849L19.1649 7.85142L19.1639 7.85226L19.4814 8.23849ZM19.8225 6.48117L19.3905 6.73279L19.8225 6.48117ZM19.1403 5.30962L19.5724 5.05794L19.5668 5.04878L19.1403 5.30962ZM17.4346 4.72385L17.2792 4.24862L17.2716 4.25109L17.2641 4.2538L17.4346 4.72385ZM15.4731 5.43515L15.1444 5.81196L15.3665 6.00565L15.6435 5.9052L15.4731 5.43515ZM12.9572 4.01255L12.4646 4.09801L12.516 4.3943L12.8018 4.48778L12.9572 4.01255ZM12.6161 2.04603L13.1088 1.96055L13.1072 1.95218L12.6161 2.04603ZM8.43723 2.04603L7.94608 1.95217L7.94491 1.95876L8.43723 2.04603ZM8.0961 3.97071L8.24511 4.44799L8.53536 4.35737L8.58843 4.05797L8.0961 3.97071ZM5.53761 5.39331L5.36716 5.86335L5.63421 5.96019L5.85412 5.78038L5.53761 5.39331ZM3.5761 4.68201L3.74655 4.21196L3.72131 4.2028L3.69522 4.19641L3.5761 4.68201ZM1.87044 5.26778L1.44377 5.00688L1.43837 5.01616L1.87044 5.26778ZM1.18818 6.43933L1.62025 6.69095L1.18818 6.43933ZM1.52931 8.19665L1.84683 7.81042L1.83881 7.80383L1.83053 7.79757L1.52931 8.19665ZM3.10704 9.49372L3.59868 9.58482L3.65241 9.2948L3.42457 9.10749L3.10704 9.49372ZM3.10704 12.3389L3.42457 12.7251L3.65241 12.5378L3.59868 12.2478L3.10704 12.3389ZM1.52931 13.636L1.84581 14.0231L1.84683 14.0222L1.52931 13.636ZM1.18818 15.3933L0.756103 15.6449H0.756103L1.18818 15.3933ZM1.87044 16.5649L1.43827 16.8165L1.44387 16.8257L1.87044 16.5649ZM3.5761 17.1506L3.73154 17.6259L3.73909 17.6234L3.74655 17.6207L3.5761 17.1506ZM5.53761 16.4393L5.86627 16.0625L5.64419 15.8688L5.36716 15.9693L5.53761 16.4393ZM8.05346 17.8619L8.5464 17.7782L8.49584 17.4806L8.2089 17.3867L8.05346 17.8619ZM8.39459 19.8703L7.90155 19.954L7.90348 19.9641L8.39459 19.8703ZM12.5735 19.8285L13.0647 19.9223L13.0664 19.9122L12.5735 19.8285ZM12.9146 17.8201L12.7531 17.3469L12.4715 17.443L12.4217 17.7364L12.9146 17.8201ZM15.5584 16.272L15.7392 15.8058L15.4478 15.6928L15.2185 15.9052L15.5584 16.272ZM17.392 16.9833L17.2111 17.4494L17.2413 17.4611L17.2728 17.4689L17.392 16.9833ZM19.1403 16.3975L19.5669 16.6584L19.5713 16.6509L19.1403 16.3975ZM19.7799 15.3096L19.3959 14.9894L19.3696 15.0209L19.3489 15.0562L19.7799 15.3096ZM19.4814 13.6778L19.1639 14.0641L19.1649 14.0649L19.4814 13.6778ZM10.5267 7.61297C8.59648 7.61297 7.04176 9.12501 7.04176 11.0418H8.04176C8.04176 9.69508 9.13082 8.61297 10.5267 8.61297V7.61297ZM7.04176 11.0418C7.04176 12.9587 8.59648 14.4707 10.5267 14.4707V13.4707C9.13082 13.4707 8.04176 12.3886 8.04176 11.0418H7.04176ZM10.5267 14.4707C12.4569 14.4707 14.0116 12.9587 14.0116 11.0418H13.0116C13.0116 12.3886 11.9225 13.4707 10.5267 13.4707V14.4707ZM14.0116 11.0418C14.0116 9.12501 12.4569 7.61297 10.5267 7.61297V8.61297C11.9225 8.61297 13.0116 9.69508 13.0116 11.0418H14.0116ZM19.7989 13.2916L18.2212 11.9945L17.5861 12.767L19.1639 14.0641L19.7989 13.2916ZM18.3953 12.4719C18.4865 11.9795 18.5316 11.4468 18.5316 10.9582H17.5316C17.5316 11.39 17.4914 11.8615 17.412 12.2897L18.3953 12.4719ZM18.5316 10.9582C18.5316 10.4695 18.4865 9.93685 18.3953 9.44447L17.412 9.62666C17.4914 10.0548 17.5316 10.5263 17.5316 10.9582H18.5316ZM18.2212 9.9218L19.7989 8.62473L19.1639 7.85226L17.5861 9.14933L18.2212 9.9218ZM19.7979 8.62557C20.4847 8.06399 20.729 7.04419 20.2546 6.22955L19.3905 6.73279C19.5983 7.08971 19.5015 7.57618 19.1649 7.85142L19.7979 8.62557ZM20.2546 6.22955L19.5723 5.058L18.7082 5.56125L19.3905 6.73279L20.2546 6.22955ZM19.5668 5.04878C19.2138 4.47146 18.577 4.14017 17.9037 4.14017V5.14017C18.2537 5.14017 18.555 5.31097 18.7137 5.57046L19.5668 5.04878ZM17.9037 4.14017C17.6589 4.14017 17.4318 4.19871 17.2792 4.24862L17.59 5.19908C17.6933 5.16531 17.8073 5.14017 17.9037 5.14017V4.14017ZM17.2641 4.2538L15.3026 4.9651L15.6435 5.9052L17.605 5.1939L17.2641 4.2538ZM15.8017 5.05834C14.9801 4.34171 14.0673 3.84956 13.1127 3.53733L12.8018 4.48778C13.6381 4.76132 14.431 5.18967 15.1444 5.81196L15.8017 5.05834ZM13.4499 3.92709L13.1087 1.96057L12.1235 2.13148L12.4646 4.09801L13.4499 3.92709ZM13.1072 1.95218C12.9228 0.98725 12.0646 0.5 11.2089 0.5V1.5C11.7178 1.5 12.0535 1.76589 12.125 2.13987L13.1072 1.95218ZM11.2089 0.5H9.84441V1.5H11.2089V0.5ZM9.84441 0.5C8.98873 0.5 8.13051 0.98725 7.94612 1.95218L8.92835 2.13987C8.99981 1.76589 9.33555 1.5 9.84441 1.5V0.5ZM7.94491 1.95876L7.60378 3.88345L8.58843 4.05797L8.92956 2.13329L7.94491 1.95876ZM7.94709 3.49343C6.93579 3.80917 6.02734 4.34698 5.22111 5.00623L5.85412 5.78038C6.58298 5.1844 7.38018 4.71803 8.24511 4.44799L7.94709 3.49343ZM5.70806 4.92326L3.74655 4.21196L3.40565 5.15206L5.36716 5.86335L5.70806 4.92326ZM3.69522 4.19641C3.56271 4.1639 3.35508 4.09833 3.10704 4.09833V5.09833C3.20014 5.09833 3.24836 5.11644 3.45698 5.16761L3.69522 4.19641ZM3.10704 4.09833C2.4337 4.09833 1.79689 4.42962 1.44387 5.00694L2.29701 5.52862C2.45569 5.26913 2.75699 5.09833 3.10704 5.09833V4.09833ZM1.43837 5.01616L0.756103 6.18771L1.62025 6.69095L2.30251 5.5194L1.43837 5.01616ZM0.756103 6.18771C0.293786 6.98158 0.462004 8.0175 1.22809 8.59573L1.83053 7.79757C1.48793 7.53898 1.4003 7.06863 1.62025 6.69095L0.756103 6.18771ZM1.21178 8.58289L2.78952 9.87996L3.42457 9.10749L1.84683 7.81042L1.21178 8.58289ZM2.61541 9.40263C2.52418 9.89501 2.47912 10.4277 2.47912 10.9163H3.47912C3.47912 10.4844 3.51935 10.0129 3.59868 9.58482L2.61541 9.40263ZM2.47912 10.9163C2.47912 11.4481 2.52441 11.9389 2.61541 12.43L3.59868 12.2478C3.51911 11.8184 3.47912 11.3887 3.47912 10.9163H2.47912ZM2.78952 11.9527L1.21178 13.2497L1.84683 14.0222L3.42457 12.7251L2.78952 11.9527ZM1.2128 13.2489C0.526016 13.8105 0.281691 14.8303 0.756103 15.6449L1.62025 15.1417C1.41239 14.7848 1.5092 14.2983 1.84581 14.0231L1.2128 13.2489ZM0.756103 15.6449L1.43837 16.8165L2.30251 16.3132L1.62025 15.1417L0.756103 15.6449ZM1.44387 16.8257C1.79689 17.403 2.4337 17.7343 3.10704 17.7343V16.7343C2.75699 16.7343 2.45569 16.5635 2.29701 16.304L1.44387 16.8257ZM3.10704 17.7343C3.35182 17.7343 3.57892 17.6758 3.73154 17.6259L3.42067 16.6754C3.31743 16.7092 3.2034 16.7343 3.10704 16.7343V17.7343ZM3.74655 17.6207L5.70806 16.9094L5.36716 15.9693L3.40565 16.6806L3.74655 17.6207ZM5.20896 16.8161C6.03059 17.5328 6.9434 18.0249 7.89803 18.3372L8.2089 17.3867C7.37257 17.1132 6.57973 16.6848 5.86627 16.0625L5.20896 16.8161ZM7.56052 17.9457L7.90165 19.954L8.88753 19.7866L8.5464 17.7782L7.56052 17.9457ZM7.90348 19.9641C8.07803 20.8776 8.84546 21.5 9.80176 21.5V20.5C9.30825 20.5 8.96701 20.2019 8.88571 19.7764L7.90348 19.9641ZM9.80176 21.5H11.1663V20.5H9.80176V21.5ZM11.1663 21.5C12.0926 21.5 12.8924 20.8234 13.0646 19.9223L12.0823 19.7346C11.9987 20.1724 11.6045 20.5 11.1663 20.5V21.5ZM13.0664 19.9122L13.4075 17.9038L12.4217 17.7364L12.0805 19.7447L13.0664 19.9122ZM13.0761 18.2933C14.1144 17.9389 15.073 17.4035 15.8982 16.6387L15.2185 15.9052C14.5087 16.5631 13.6763 17.0318 12.7531 17.3469L13.0761 18.2933ZM15.3775 16.7381L17.2111 17.4494L17.5728 16.5171L15.7392 15.8058L15.3775 16.7381ZM17.2728 17.4689C17.4319 17.5079 17.6621 17.5669 17.9037 17.5669V16.5669C17.8041 16.5669 17.6931 16.5423 17.5111 16.4977L17.2728 17.4689ZM17.9037 17.5669C18.577 17.5669 19.2138 17.2357 19.5668 16.6583L18.7137 16.1367C18.555 16.3961 18.2537 16.5669 17.9037 16.5669V17.5669ZM19.5713 16.6509L20.2109 15.563L19.3489 15.0562L18.7092 16.1441L19.5713 16.6509ZM20.1639 15.6298C20.7828 14.8876 20.4487 13.8229 19.7979 13.2908L19.1649 14.0649C19.5374 14.3695 19.5446 14.8111 19.3959 14.9894L20.1639 15.6298ZM10.5267 15.1444C8.1927 15.1444 6.3361 13.3091 6.3361 11.0418H5.3361C5.3361 13.8792 7.65837 16.1444 10.5267 16.1444V15.1444ZM6.3361 11.0418C6.3361 8.77457 8.1927 6.93933 10.5267 6.93933V5.93933C7.65837 5.93933 5.3361 8.20451 5.3361 11.0418H6.3361ZM10.5267 6.93933C12.8606 6.93933 14.7172 8.77457 14.7172 11.0418H15.7172C15.7172 8.20451 13.395 5.93933 10.5267 5.93933V6.93933ZM14.7172 11.0418C14.7172 13.3091 12.8606 15.1444 10.5267 15.1444V16.1444C13.395 16.1444 15.7172 13.8792 15.7172 11.0418H14.7172Z" fill="white"/>
</svg>
