<svg width="17" height="17" viewBox="0 0 17 17" fill="none" xmlns="http://www.w3.org/2000/svg">
<path d="M5.125 10L5.32541 10.4581L5.33715 10.4529L5.34861 10.4472L5.125 10ZM5.3125 9.90625L5.1268 9.44201L5.10749 9.44973L5.08889 9.45904L5.3125 9.90625ZM5.78125 9.9375L6.05487 9.51901L6.04679 9.51373L6.0385 9.50875L5.78125 9.9375ZM11.1562 9.9375L10.899 9.50875L10.8928 9.51247L10.8867 9.51636L11.1562 9.9375ZM11.625 9.90625L11.8486 9.45904L11.83 9.44973L11.8107 9.44201L11.625 9.90625ZM11.8125 10L11.5889 10.4472L11.6029 10.4542L11.6172 10.4603L11.8125 10ZM15.5 13.8125V14.5H16.5V13.8125H15.5ZM15.5 14.5C15.5 15.0364 15.0364 15.5 14.5 15.5V16.5C15.5886 16.5 16.5 15.5886 16.5 14.5H15.5ZM14.5 15.5H2.5V16.5H14.5V15.5ZM2.5 15.5C1.96364 15.5 1.5 15.0364 1.5 14.5H0.5C0.5 15.5886 1.41136 16.5 2.5 16.5V15.5ZM1.5 14.5V13.8125H0.5V14.5H1.5ZM1.5 13.8125C1.5 13.1262 1.8964 12.5206 2.62245 11.947C3.34903 11.373 4.32817 10.8944 5.32541 10.4581L4.92459 9.54192C3.92183 9.98063 2.83847 10.502 2.00255 11.1623C1.1661 11.8231 0.5 12.6863 0.5 13.8125H1.5ZM5.34861 10.4472L5.53611 10.3535L5.08889 9.45904L4.90139 9.55279L5.34861 10.4472ZM5.4982 10.3705C5.51066 10.3655 5.51838 10.3637 5.52183 10.363C5.52503 10.3624 5.52473 10.3628 5.52191 10.3627C5.51891 10.3625 5.51624 10.3619 5.51493 10.3615C5.51376 10.3612 5.51671 10.3619 5.524 10.3662L6.0385 9.50875C5.7297 9.32347 5.40679 9.33002 5.1268 9.44201L5.4982 10.3705ZM5.50763 10.356C6.398 10.9382 7.39874 11.25 8.46875 11.25V10.25C7.60126 10.25 6.7895 9.99935 6.05487 9.51901L5.50763 10.356ZM8.46875 11.25C9.54401 11.25 10.5738 10.9039 11.4258 10.3586L10.8867 9.51636C10.1762 9.97113 9.33099 10.25 8.46875 10.25V11.25ZM11.4135 10.3662C11.4208 10.3619 11.4237 10.3612 11.4226 10.3615C11.4213 10.3619 11.4186 10.3625 11.4156 10.3627C11.4128 10.3628 11.4125 10.3624 11.4157 10.363C11.4191 10.3637 11.4268 10.3655 11.4393 10.3705L11.8107 9.44201C11.5307 9.33002 11.2078 9.32347 10.899 9.50875L11.4135 10.3662ZM11.4014 10.3535L11.5889 10.4472L12.0361 9.55279L11.8486 9.45904L11.4014 10.3535ZM11.6172 10.4603C12.6467 10.8971 13.6399 11.3681 14.3729 11.9377C15.1027 12.505 15.5 13.1099 15.5 13.8125H16.5C16.5 12.6713 15.8348 11.8075 14.9865 11.1482C14.1413 10.4913 13.0408 9.97795 12.0078 9.53971L11.6172 10.4603ZM8.5 1.5C10.2384 1.5 11.7188 3.06932 11.7188 5.125H12.7188C12.7188 2.61818 10.8866 0.5 8.5 0.5V1.5ZM11.7188 5.125C11.7188 7.18068 10.2384 8.75 8.5 8.75V9.75C10.8866 9.75 12.7188 7.63182 12.7188 5.125H11.7188ZM8.5 8.75C6.76163 8.75 5.28125 7.18068 5.28125 5.125H4.28125C4.28125 7.63182 6.11337 9.75 8.5 9.75V8.75ZM5.28125 5.125C5.28125 3.06932 6.76163 1.5 8.5 1.5V0.5C6.11337 0.5 4.28125 2.61818 4.28125 5.125H5.28125Z" fill="black"/>
</svg>
