<svg width="286" height="40" viewBox="0 0 286 40" fill="none" xmlns="http://www.w3.org/2000/svg">
<g id="Group 4 Copy">
<g id="Group">
<path id="Shape" fill-rule="evenodd" clip-rule="evenodd" d="M0.589858 32.6C0.588932 32.6326 0.588469 32.666 0.588469 32.7V32.6H0.589858ZM0.589858 32.6H1.27408C1.27408 32.2 1.46998 31.9 1.66587 31.8C1.9597 31.7 2.44943 31.6 3.33093 31.6C3.74529 31.6 4.0881 31.6365 4.35936 31.6654C4.53694 31.6843 4.68386 31.7 4.80011 31.7C5.09395 31.7 5.38778 31.8 5.48573 31.9C5.58367 32 5.68162 32.1 5.77956 32.3C5.87751 32.5 5.87751 32.9 5.87751 33.3V33.9C5.77956 33.6 5.58367 33.4 5.28984 33.3C5.09395 33.2 4.40833 33.1 3.33093 33.1C2.64532 33.1 2.05765 33.1 1.66587 33.2C1.37203 33.3 1.07819 33.4 0.882304 33.5C0.588469 33.7 0.392578 34.2 0.392578 34.8C0.392578 35.1 0.392578 35.4 0.490523 35.6C0.588469 35.8 0.686414 36 0.882304 36.1C1.07819 36.3 1.37203 36.4 1.66587 36.4C1.9597 36.5 2.54737 36.5 3.42888 36.5C4.31039 36.5 4.89806 36.5 5.19189 36.4C5.48573 36.4 5.77956 36.1 5.87751 35.8V36.5H6.66107V33.2C6.66107 32.7 6.66107 32.3 6.56313 32.1C6.46518 31.8 6.36724 31.7 6.17135 31.5C5.97545 31.3 5.68162 31.2 5.28984 31.1C4.89806 31 4.31039 31 3.42888 31C3.01452 31 2.67171 31.0365 2.40045 31.0654C2.22287 31.0843 2.07596 31.1 1.9597 31.1C1.66587 31.2 1.37203 31.3 1.17614 31.4C0.80341 31.5903 0.607983 31.9616 0.589858 32.6ZM1.66587 34.1C1.9597 34 2.64532 33.9 3.62477 33.9C4.70217 33.9 5.28984 34 5.48573 34.1C5.77956 34.2 5.87751 34.5 5.87751 34.8C5.87751 35.3 5.68162 35.6 5.28984 35.7C4.996 35.8 4.40833 35.8 3.52682 35.8H2.35148C2.25354 35.8 2.15559 35.775 2.05765 35.75C1.9597 35.725 1.86176 35.7 1.76381 35.7C1.46998 35.6 1.27408 35.4 1.27408 34.9C1.27408 34.5 1.37203 34.2 1.66587 34.1Z" fill="#231F20"/>
<path id="Path" d="M15.2799 31.2V36.5H14.4964V35.4C14.3005 35.9 14.1046 36.2 13.7128 36.4C13.321 36.6 12.7333 36.6 11.7539 36.6C11.1662 36.6 10.7744 36.6 10.4806 36.5C9.99088 36.4 9.5991 36.2 9.40321 35.9C9.20732 35.6 9.10938 35.1 9.10938 34.5V31.2H9.79499V34.5C9.79499 35 9.89294 35.4 10.0888 35.5C10.2847 35.6 10.4806 35.7 10.7744 35.8C11.0683 35.9 11.4601 35.9 11.9498 35.9C12.9292 35.9 13.5169 35.8 13.9087 35.5C14.3005 35.3 14.4964 34.9 14.4964 34.3V31.2H15.2799V31.2Z" fill="#231F20"/>
<path id="Path_2" d="M16.6523 31.8V31.1H17.9256V29.9H18.7092V31.1H22.2352V31.8H18.6112V34.5C18.6112 34.9 18.6112 35.2 18.7092 35.4C18.8071 35.6 18.9051 35.7 19.1989 35.8C19.3948 35.9 19.7866 35.9 20.2763 35.9C20.6681 35.9 20.864 35.9 21.0599 35.8C21.2558 35.7 21.3537 35.6 21.4517 35.5C21.5496 35.4 21.5496 35.3 21.5496 35.2C21.5496 35.1 21.5496 34.8 21.5496 34.4V34.2H22.2352V34.4C22.2352 34.9 22.2352 35.3 22.1373 35.5C22.1373 35.7 22.0393 35.9 21.9414 36C21.7455 36.2 21.5496 36.3 21.2558 36.4C20.9619 36.5 20.5702 36.5 20.0804 36.5C19.4928 36.5 19.003 36.4 18.6112 36.3C18.3174 36.2 18.0236 36 17.9256 35.8C17.8277 35.7 17.7297 35.5 17.7297 35.3C17.7297 35.1 17.7297 34.8 17.7297 34.4V31.7H16.6523V31.8Z" fill="#231F20"/>
<path id="Shape_2" fill-rule="evenodd" clip-rule="evenodd" d="M29.2868 31.2C28.895 31.1 28.3073 31.1 27.5238 31.1C26.7402 31.1 26.1526 31.1 25.6628 31.2C25.271 31.3 24.9772 31.4 24.7813 31.6C24.5854 31.8 24.3895 32.1 24.2916 32.4C24.1936 32.8 24.0957 33.2 24.0957 33.8C24.0957 34.4 24.1936 34.9 24.2916 35.2C24.3895 35.5 24.5854 35.8 24.7813 36C25.0752 36.2 25.369 36.3 25.7608 36.4C26.1526 36.5 26.7402 36.5 27.5238 36.5C28.3073 36.5 28.895 36.5 29.2868 36.4C29.7765 36.3 30.0704 36.2 30.2663 36C30.4621 35.8 30.658 35.5 30.756 35.2C30.8539 34.8 30.9519 34.4 30.9519 33.8C30.9519 33.2 30.8539 32.7 30.756 32.4C30.658 32.1 30.4621 31.8 30.2663 31.6C29.9724 31.4 29.6786 31.3 29.2868 31.2ZM25.9567 31.9C26.2505 31.8 26.8382 31.8 27.5238 31.8C28.2094 31.8 28.6991 31.8 28.993 31.9C29.2868 32 29.5806 32.1 29.6786 32.2C29.9724 32.5 30.0704 33 30.0704 33.9C30.0704 34.7 29.9724 35.2 29.7765 35.5C29.6786 35.7 29.3847 35.8 29.0909 35.9C28.7971 36 28.2094 36 27.5238 36H27.5238H27.5238C26.8382 36 26.3484 36 26.0546 35.9C25.7608 35.8 25.4669 35.7 25.369 35.6C25.0752 35.3 24.9772 34.8 24.9772 33.9C24.9772 33.1 25.0752 32.6 25.271 32.3C25.369 32.1 25.6628 32 25.9567 31.9Z" fill="#231F20"/>
<path id="Path_3" d="M33.1055 36.5V31.2H33.889V32.2C33.987 31.8 34.2808 31.5 34.5746 31.3C34.8685 31.1 35.4562 31.1 36.2397 31.1C37.1212 31.1 37.7089 31.2 38.1007 31.5C38.3945 31.8 38.5904 32.3 38.5904 33.1V33.4H37.8068V33.1C37.8068 32.7 37.8068 32.5 37.7089 32.3C37.6109 32.1 37.513 32 37.3171 31.9C37.1212 31.8 36.6315 31.7 36.0438 31.7C35.2603 31.7 34.6726 31.8 34.3788 32.1C34.0849 32.3 33.889 32.7 33.889 33.3V36.4H33.1055V36.5Z" fill="#231F20"/>
<path id="Shape_3" fill-rule="evenodd" clip-rule="evenodd" d="M40.1582 28.9V29.9H40.9582V28.9H40.1582ZM40.1582 31.2V36.5H40.9582V31.2H40.1582Z" fill="#231F20"/>
<path id="Path_4" d="M42.8027 36.5V35.8L47.5041 31.8H42.9986V31.1H48.6794V31.8L43.9781 35.8H48.7774V36.5H42.8027Z" fill="#231F20"/>
<path id="Shape_4" fill-rule="evenodd" clip-rule="evenodd" d="M55.4372 31.2C55.0454 31.1 54.4577 31.1 53.6742 31.1C52.8906 31.1 52.3029 31.1 51.8132 31.2C51.4214 31.3 51.1276 31.4 50.9317 31.6C50.7358 31.8 50.5399 32.1 50.442 32.4C50.344 32.8 50.2461 33.2 50.2461 33.8C50.2461 34.4 50.344 34.9 50.442 35.2C50.5399 35.5 50.7358 35.8 50.9317 36C51.2255 36.2 51.5194 36.3 51.9112 36.4C52.3029 36.5 52.8906 36.5 53.6742 36.5C54.4577 36.5 55.0454 36.5 55.4372 36.4C55.9269 36.3 56.2208 36.2 56.4166 36C56.6125 35.8 56.8084 35.5 56.9064 35.2C57.0043 34.8 57.1023 34.4 57.1023 33.8C57.1023 33.2 57.0043 32.7 56.9064 32.4C56.8084 32.1 56.6125 31.8 56.4166 31.6C56.1228 31.4 55.829 31.3 55.4372 31.2ZM52.1071 31.9C52.4009 31.8 52.9886 31.8 53.6742 31.8C54.3598 31.8 54.8495 31.8 55.1434 31.9C55.4372 32 55.731 32.1 55.829 32.2C56.1228 32.5 56.2208 33 56.2208 33.9C56.2208 34.7 56.1228 35.2 55.9269 35.5C55.829 35.7 55.5351 35.8 55.2413 35.9C54.9475 36 54.3598 36 53.6742 36H53.6742H53.6742C52.9886 36 52.4988 36 52.205 35.9C51.9112 35.8 51.6173 35.7 51.5194 35.6C51.2255 35.3 51.1276 34.8 51.1276 33.9C51.1276 33.1 51.2255 32.6 51.4214 32.3C51.5194 32.1 51.8132 32 52.1071 31.9Z" fill="#231F20"/>
<path id="Path_5" d="M58.1797 31.2H59.0612L61.7057 36L64.3502 31.2H65.2317L62.1954 36.5H61.118L58.1797 31.2Z" fill="#231F20"/>
<path id="Shape_5" fill-rule="evenodd" clip-rule="evenodd" d="M66.7031 32.6C66.7022 32.6326 66.7017 32.666 66.7017 32.7V32.6H66.7031ZM66.7031 32.6H67.3874C67.3874 32.2 67.5833 31.9 67.7791 31.8C68.073 31.7 68.5627 31.6 69.4442 31.6C69.8586 31.6 70.2014 31.6365 70.4726 31.6654C70.6502 31.6843 70.7971 31.7 70.9134 31.7C71.2072 31.7 71.5011 31.8 71.599 31.9C71.697 32 71.7949 32.1 71.8928 32.3C71.9908 32.5 71.9908 32.9 71.9908 33.3V33.9C71.8928 33.6 71.697 33.4 71.4031 33.3C71.2072 33.2 70.5216 33.1 69.4442 33.1C68.7586 33.1 68.1709 33.1 67.7791 33.2C67.4853 33.3 67.1915 33.4 66.9956 33.5C66.7017 33.7 66.5059 34.2 66.5059 34.8C66.5059 35.1 66.5059 35.4 66.6038 35.6C66.7017 35.8 66.7997 36 66.9956 36.1C67.1915 36.3 67.4853 36.4 67.7791 36.4C68.073 36.5 68.6607 36.5 69.5422 36.5C70.4237 36.5 71.0113 36.5 71.3052 36.4C71.599 36.4 71.8928 36.1 71.9908 35.8V36.5H72.7744V33.2C72.7744 32.7 72.7744 32.3 72.6764 32.1C72.5785 31.8 72.4805 31.7 72.2846 31.5C72.0887 31.3 71.7949 31.2 71.4031 31.1C71.0113 31 70.4237 31 69.5422 31C69.1278 31 68.785 31.0365 68.5137 31.0654C68.3362 31.0843 68.1892 31.1 68.073 31.1C67.7791 31.2 67.4853 31.3 67.2894 31.4C66.9167 31.5903 66.7213 31.9616 66.7031 32.6ZM67.6812 34.1C67.975 34 68.6607 33.9 69.6401 33.9C70.7175 33.9 71.4031 34 71.5011 34.1C71.7949 34.2 71.8928 34.5 71.8928 34.8C71.8928 35.3 71.697 35.6 71.3052 35.7C71.0113 35.8 70.4237 35.8 69.5422 35.8H68.3668C68.2689 35.8 68.1709 35.775 68.073 35.75C67.975 35.725 67.8771 35.7 67.7791 35.7C67.4853 35.6 67.2894 35.4 67.2894 34.9C67.2894 34.5 67.3874 34.2 67.6812 34.1Z" fill="#231F20"/>
<path id="Path_6" d="M75.125 36.5V31.2H75.9086V32.3C76.1045 31.8 76.3003 31.5 76.6921 31.3C77.0839 31.1 77.6716 31.1 78.651 31.1C79.2387 31.1 79.6305 31.1 79.9243 31.2C80.414 31.3 80.8058 31.5 81.0017 31.8C81.1976 32.1 81.2955 32.6 81.2955 33.2V36.5H80.512V33.2C80.512 32.7 80.414 32.3 80.2182 32.2C80.0223 32.1 79.8264 32 79.5325 31.9C79.2387 31.8 78.8469 31.8 78.3572 31.8C77.3777 31.8 76.7901 31.9 76.3983 32.2C76.0065 32.4 75.8106 32.9 75.8106 33.4V36.5H75.125Z" fill="#231F20"/>
<path id="Shape_6" fill-rule="evenodd" clip-rule="evenodd" d="M85.2129 30L85.3108 30.4L87.6615 29.8L87.3677 29.1L85.2129 30ZM83.4499 31.2H82.5684L85.5067 36.5H85.8006L85.6047 36.9C85.3108 37.5 85.017 37.9 84.8211 38.1C84.6252 38.3 84.3314 38.4 83.8416 38.4H83.5478V39.1H83.8416C84.4293 39.1 84.919 38.9 85.3108 38.6C85.4088 38.5 85.6047 38.3 85.7026 38.1L86.2903 36.9L89.1307 31.2H88.3471L85.9964 36L83.4499 31.2Z" fill="#231F20"/>
<path id="Shape_7" fill-rule="evenodd" clip-rule="evenodd" d="M99.514 36.5H100.2V29.1H99.4161V32.1C99.2202 31.8 99.0243 31.5 98.6325 31.4C98.3387 31.3 97.751 31.2 96.8695 31.2C96.0859 31.2 95.4983 31.2 95.1065 31.3C94.6167 31.4 94.3229 31.5 94.127 31.7C93.9311 31.9 93.7352 32.2 93.6373 32.5C93.5394 32.9 93.4414 33.3 93.4414 33.9C93.4414 34.5 93.5394 35 93.6373 35.3C93.7352 35.6 93.9311 35.9 94.127 36.1C94.4209 36.3 94.7147 36.4 95.1065 36.5C95.4983 36.6 96.0859 36.6 96.8695 36.6C97.751 36.6 98.3387 36.5 98.7304 36.4C99.1222 36.3 99.3181 36 99.514 35.7V36.5ZM95.4003 31.9C95.6941 31.8 96.2818 31.8 96.9674 31.8C97.653 31.8 98.1428 31.8 98.4366 31.9C98.7304 32 99.0243 32.1 99.1222 32.2C99.4161 32.5 99.514 33 99.514 33.9C99.514 34.7 99.4161 35.2 99.2202 35.5C99.1222 35.7 98.8284 35.8 98.5346 35.9C98.2407 36 97.6531 36 96.9674 36H96.9674H96.9674C96.2818 36 95.7921 36 95.4983 35.9L95.4982 35.9C95.2044 35.8 94.9106 35.7 94.8126 35.6C94.5188 35.3 94.4209 34.8 94.4209 33.9C94.4209 33.1 94.5188 32.6 94.7147 32.3C94.8126 32.1 95.1065 32 95.4003 31.9Z" fill="#231F20"/>
<path id="Shape_8" fill-rule="evenodd" clip-rule="evenodd" d="M103.235 34.8V34.1H108.916C108.916 33.5 108.916 33.1 108.818 32.8C108.818 32.5 108.72 32.2 108.524 32C108.231 31.7 107.937 31.5 107.545 31.4C107.153 31.3 106.468 31.2 105.586 31.2C104.802 31.2 104.215 31.2 103.823 31.3C103.431 31.4 103.137 31.5 102.941 31.7C102.746 31.9 102.55 32.2 102.452 32.5C102.354 32.9 102.256 33.3 102.256 33.9C102.256 34.5 102.354 35 102.452 35.3C102.55 35.6 102.746 35.9 102.941 36.1C103.235 36.3 103.529 36.4 103.921 36.5C104.313 36.6 104.9 36.6 105.684 36.6C106.468 36.6 107.153 36.6 107.545 36.5C107.937 36.4 108.328 36.2 108.524 36C108.72 35.7 108.916 35.4 108.916 34.9H108.133C108.035 35.3 107.839 35.6 107.545 35.7C107.251 35.8 106.565 35.9 105.684 35.9C104.9 35.9 104.313 35.9 104.019 35.8C103.627 35.6 103.333 35.3 103.235 34.8ZM108.035 32.4C108.133 32.6 108.231 32.9 108.231 33.3V33.4H103.137C103.178 33.2325 103.202 33.0825 103.223 32.95C103.252 32.7662 103.276 32.6162 103.333 32.5C103.333 32.3 103.529 32.1 103.725 32C103.921 31.9 104.117 31.8 104.411 31.8C104.704 31.7 105.096 31.7 105.684 31.7C106.468 31.7 107.055 31.7 107.349 31.8C107.643 31.9 107.937 32.1 108.035 32.4Z" fill="#231F20"/>
<path id="Shape_9" fill-rule="evenodd" clip-rule="evenodd" d="M111.17 32.6C111.169 32.6326 111.169 32.666 111.169 32.7V32.6H111.17ZM111.17 32.6H111.854C111.854 32.2 112.05 31.9 112.246 31.8C112.54 31.7 113.03 31.6 113.911 31.6C114.325 31.6 114.668 31.6365 114.939 31.6654C115.117 31.6843 115.264 31.7 115.38 31.7C115.674 31.7 115.87 31.8 116.066 31.9C116.164 32 116.262 32.1 116.36 32.3C116.458 32.5 116.458 32.9 116.458 33.3V33.9C116.36 33.6 116.164 33.4 115.87 33.3C115.674 33.2 114.988 33.1 113.911 33.1C113.225 33.1 112.638 33.1 112.246 33.2C111.952 33.3 111.658 33.4 111.462 33.5C111.169 33.7 110.973 34.2 110.973 34.8C110.973 35.1 110.973 35.4 111.071 35.6C111.169 35.8 111.266 36 111.462 36.1C111.658 36.3 111.952 36.4 112.246 36.4C112.54 36.5 113.127 36.5 114.009 36.5C114.89 36.5 115.478 36.5 115.772 36.4C116.066 36.4 116.36 36.1 116.458 35.8V36.5H117.241V33.2C117.241 32.7 117.241 32.3 117.143 32.1C117.045 31.8 116.947 31.7 116.751 31.5C116.556 31.3 116.262 31.2 115.87 31.1C115.478 31 114.89 31 114.009 31C113.595 31 113.252 31.0365 112.981 31.0654C112.803 31.0843 112.656 31.1 112.54 31.1C112.246 31.2 111.952 31.3 111.756 31.4C111.383 31.5903 111.188 31.9616 111.17 32.6ZM112.148 34.1C112.442 34 113.127 33.9 114.107 33.9C115.184 33.9 115.87 34 115.968 34.1C116.262 34.2 116.36 34.5 116.36 34.8C116.36 35.3 116.164 35.6 115.772 35.7C115.478 35.8 114.89 35.8 114.009 35.8H112.834C112.736 35.8 112.638 35.775 112.54 35.75C112.442 35.725 112.344 35.7 112.246 35.7C111.952 35.6 111.756 35.4 111.756 34.9C111.756 34.5 111.854 34.2 112.148 34.1Z" fill="#231F20"/>
<path id="Path_7" d="M119.592 36.5V28.9H120.376V36.5H119.592Z" fill="#231F20"/>
<path id="Shape_10" fill-rule="evenodd" clip-rule="evenodd" d="M123.313 34.8V34.1H128.994C128.994 33.5 128.994 33.1 128.896 32.8C128.896 32.5 128.798 32.2 128.602 32C128.309 31.7 128.015 31.5 127.623 31.4C127.231 31.3 126.546 31.2 125.664 31.2C124.881 31.2 124.293 31.2 123.901 31.3C123.509 31.4 123.215 31.5 123.02 31.7C122.824 31.9 122.628 32.2 122.53 32.5C122.432 32.9 122.334 33.3 122.334 33.9C122.334 34.5 122.432 35 122.53 35.3C122.628 35.6 122.824 35.9 123.02 36.1C123.313 36.3 123.607 36.4 123.999 36.5C124.391 36.6 124.979 36.6 125.762 36.6C126.546 36.6 127.231 36.6 127.623 36.5C128.015 36.4 128.407 36.2 128.602 36C128.798 35.7 128.994 35.4 128.994 34.9H128.211C128.113 35.3 127.917 35.6 127.623 35.7C127.329 35.8 126.644 35.9 125.762 35.9C124.979 35.9 124.391 35.9 124.097 35.8C123.705 35.6 123.411 35.3 123.313 34.8ZM128.113 32.4C128.211 32.6 128.309 32.9 128.309 33.3V33.4H123.215C123.257 33.2325 123.28 33.0825 123.301 32.95C123.331 32.7662 123.354 32.6162 123.411 32.5C123.411 32.3 123.607 32.1 123.803 32C123.999 31.9 124.195 31.8 124.489 31.8C124.783 31.7 125.174 31.7 125.762 31.7C126.546 31.7 127.133 31.7 127.427 31.8C127.721 31.9 128.015 32.1 128.113 32.4Z" fill="#231F20"/>
<path id="Path_8" d="M131.248 36.5V31.2H132.032V32.2C132.13 31.8 132.423 31.5 132.717 31.3C133.011 31.1 133.599 31.1 134.382 31.1C135.264 31.1 135.851 31.2 136.243 31.5C136.537 31.8 136.733 32.3 136.733 33.1V33.4H135.949V33.1C135.949 32.7 135.949 32.5 135.851 32.3C135.754 32.1 135.656 32 135.46 31.9C135.264 31.8 134.774 31.7 134.186 31.7C133.403 31.7 132.815 31.8 132.521 32.1C132.227 32.3 132.032 32.7 132.032 33.3V36.4H131.248V36.5Z" fill="#231F20"/>
<path id="Path_9" d="M147.016 29H147.897V33.9C147.897 34.3 147.897 34.7 147.897 34.9C147.897 35.1 147.799 35.3 147.701 35.5C147.505 35.9 147.212 36.2 146.82 36.4C146.428 36.5 145.644 36.6 144.567 36.6C143.686 36.6 143.098 36.6 142.706 36.5C142.314 36.4 141.923 36.3 141.727 36.2C141.335 36 141.139 35.6 141.041 35C141.041 34.9 141.041 34.6 141.041 34.1V33.8H141.923V34.3C141.923 34.7 141.923 35.1 142.02 35.2C142.118 35.4 142.216 35.5 142.51 35.6C142.902 35.7 143.588 35.8 144.567 35.8C145.546 35.8 146.232 35.7 146.526 35.6C146.722 35.5 146.82 35.3 146.918 35C147.016 34.7 147.016 34.3 147.016 33.6V29Z" fill="#231F20"/>
<path id="Shape_11" fill-rule="evenodd" clip-rule="evenodd" d="M150.348 32.6C150.347 32.6326 150.346 32.666 150.346 32.7V32.6H150.348ZM150.348 32.6H151.032C151.032 32.2 151.228 31.9 151.424 31.8C151.718 31.7 152.207 31.6 153.089 31.6C153.503 31.6 153.846 31.6365 154.117 31.6654C154.295 31.6843 154.442 31.7 154.558 31.7C154.852 31.7 155.146 31.8 155.244 31.9C155.341 32 155.439 32.1 155.537 32.3C155.635 32.5 155.635 32.9 155.635 33.3V33.9C155.537 33.6 155.341 33.4 155.048 33.3C154.852 33.2 154.166 33.1 153.089 33.1C152.403 33.1 151.815 33.1 151.424 33.2C151.13 33.3 150.836 33.4 150.64 33.5C150.346 33.7 150.15 34.2 150.15 34.8C150.15 35.1 150.15 35.4 150.248 35.6C150.346 35.8 150.444 36 150.64 36.1C150.836 36.3 151.13 36.4 151.424 36.4C151.718 36.5 152.305 36.5 153.187 36.5C154.068 36.5 154.656 36.5 154.95 36.4C155.244 36.4 155.537 36.1 155.635 35.8V36.5H156.419V33.2C156.419 32.7 156.419 32.3 156.321 32.1C156.223 31.8 156.125 31.7 155.929 31.5C155.733 31.3 155.439 31.2 155.048 31.1C154.656 31 154.068 31 153.187 31C152.772 31 152.43 31.0365 152.158 31.0654C151.981 31.0843 151.834 31.1 151.718 31.1C151.424 31.2 151.13 31.3 150.934 31.4C150.561 31.5903 150.366 31.9616 150.348 32.6ZM151.326 34.1C151.62 34 152.305 33.9 153.285 33.9C154.362 33.9 155.048 34 155.146 34.1C155.439 34.2 155.537 34.5 155.537 34.8C155.537 35.3 155.341 35.6 154.95 35.7C154.656 35.8 154.068 35.8 153.187 35.8H152.011C151.913 35.8 151.815 35.775 151.718 35.75C151.62 35.725 151.522 35.7 151.424 35.7C151.13 35.6 150.934 35.4 150.934 34.9C150.934 34.5 151.032 34.2 151.326 34.1Z" fill="#231F20"/>
<path id="Shape_12" fill-rule="evenodd" clip-rule="evenodd" d="M165.332 36V31.3H164.549V32.1C164.353 31.7 164.157 31.5 163.765 31.4C163.471 31.3 162.884 31.2 162.002 31.2C161.219 31.2 160.631 31.2 160.239 31.3C159.75 31.4 159.456 31.5 159.26 31.7C159.064 31.9 158.868 32.2 158.77 32.5C158.672 32.9 158.574 33.3 158.574 33.9C158.574 34.5 158.672 35 158.77 35.3C158.868 35.6 159.064 35.9 159.26 36.1C159.554 36.3 159.848 36.4 160.239 36.5C160.631 36.6 161.219 36.6 162.002 36.6C162.786 36.6 163.374 36.5 163.765 36.4C164.059 36.3 164.353 36 164.549 35.7V36.9C164.451 37.5 164.255 37.9 163.961 38.1C163.765 38.2 163.569 38.3 163.276 38.3H162.002C161.588 38.3 161.245 38.2635 160.974 38.2346C160.796 38.2157 160.649 38.2 160.533 38.2C160.239 38.1 160.043 38 159.848 37.9L159.848 37.9C159.652 37.7 159.554 37.4 159.554 37.1V37H158.77V37.2C158.77 37.8 158.966 38.3 159.358 38.6C159.554 38.8 159.848 38.9 160.239 39C160.631 39.1 161.219 39.1 162.002 39.1C163.08 39.1 163.765 39 164.157 38.9C164.549 38.7 164.843 38.5 165.039 38.1C165.059 38.0374 165.079 37.9791 165.099 37.9234C165.173 37.7122 165.234 37.5374 165.234 37.3C165.332 37 165.332 36.6 165.332 36ZM160.141 31.9C160.435 31.8 161.023 31.8 161.904 31.8C162.688 31.8 163.178 31.8 163.276 31.9C163.569 31.9 163.765 32 163.961 32.2C164.255 32.5 164.353 33 164.353 33.9C164.353 34.5 164.255 34.9 164.157 35.2C164.059 35.5 163.765 35.7 163.471 35.8C163.276 35.9 162.688 35.9 161.806 35.9C161.121 35.9 160.631 35.9 160.337 35.8C160.043 35.8 159.848 35.7 159.652 35.5C159.358 35.2 159.26 34.7 159.26 33.8C159.26 33.2 159.358 32.8 159.456 32.5C159.554 32.2 159.848 32 160.141 31.9Z" fill="#231F20"/>
<path id="Path_10" d="M173.854 31.2V36.5H173.071V35.4C172.875 35.9 172.679 36.2 172.287 36.4C171.895 36.6 171.308 36.6 170.328 36.6C169.74 36.6 169.349 36.6 169.055 36.5C168.565 36.4 168.173 36.2 167.977 35.9C167.782 35.6 167.684 35.1 167.684 34.5V31.2H168.467V34.5C168.467 35 168.565 35.4 168.761 35.5C168.957 35.6 169.153 35.7 169.447 35.8C169.74 35.9 170.132 35.9 170.622 35.9C171.601 35.9 172.189 35.8 172.581 35.5C172.973 35.3 173.169 34.9 173.169 34.3V31.2H173.854V31.2Z" fill="#231F20"/>
<path id="Shape_13" fill-rule="evenodd" clip-rule="evenodd" d="M176.205 32.6C176.204 32.6326 176.204 32.666 176.204 32.7V32.6H176.205ZM176.205 32.6H176.889C176.889 32.2 177.085 31.9 177.281 31.8C177.575 31.7 178.065 31.6 178.946 31.6C179.361 31.6 179.703 31.6365 179.975 31.6654C180.152 31.6843 180.299 31.7 180.415 31.7C180.709 31.7 181.003 31.8 181.101 31.9C181.199 32 181.297 32.1 181.395 32.3C181.493 32.5 181.493 32.9 181.493 33.3V33.9C181.395 33.6 181.199 33.4 180.905 33.3C180.709 33.2 180.024 33.1 178.946 33.1C178.261 33.1 177.673 33.1 177.281 33.2C176.987 33.3 176.693 33.4 176.498 33.5C176.204 33.7 176.008 34.2 176.008 34.8C176.008 35.1 176.008 35.4 176.106 35.6C176.204 35.8 176.302 36 176.498 36.1C176.693 36.3 176.987 36.4 177.281 36.4C177.575 36.5 178.163 36.5 179.044 36.5C179.926 36.5 180.513 36.5 180.807 36.4C181.101 36.4 181.395 36.1 181.493 35.8V36.5H182.276V33.2C182.276 32.7 182.276 32.3 182.178 32.1C182.08 31.8 181.982 31.7 181.787 31.5C181.591 31.3 181.297 31.2 180.905 31.1C180.513 31 179.926 31 179.044 31C178.63 31 178.287 31.0365 178.016 31.0654C177.838 31.0843 177.691 31.1 177.575 31.1C177.281 31.2 176.987 31.3 176.791 31.4C176.419 31.5903 176.223 31.9616 176.205 32.6ZM177.183 34.1C177.477 34 178.163 33.9 179.142 33.9C180.219 33.9 180.905 34 181.003 34.1C181.297 34.2 181.395 34.5 181.395 34.8C181.395 35.3 181.199 35.6 180.807 35.7C180.513 35.8 179.926 35.8 179.044 35.8H177.869C177.771 35.8 177.673 35.775 177.575 35.75C177.477 35.725 177.379 35.7 177.281 35.7C176.987 35.6 176.791 35.4 176.791 34.9C176.791 34.5 176.889 34.2 177.183 34.1Z" fill="#231F20"/>
<path id="Path_11" d="M184.627 36.5V31.2H185.411V32.2C185.508 31.8 185.802 31.5 186.096 31.3C186.39 31.1 186.978 31.1 187.761 31.1C188.643 31.1 189.23 31.2 189.622 31.5C189.916 31.8 190.112 32.3 190.112 33.1V33.4H189.328V33.1C189.328 32.7 189.328 32.5 189.23 32.3C189.132 32.1 189.034 32 188.839 31.9C188.643 31.8 188.153 31.7 187.565 31.7C186.782 31.7 186.194 31.8 185.9 32.1C185.606 32.3 185.411 32.7 185.411 33.3V36.4H184.627V36.5Z" fill="#231F20"/>
<path id="Shape_14" fill-rule="evenodd" clip-rule="evenodd" d="M195.012 32.6C195.011 32.6326 195.01 32.666 195.01 32.7V32.6H195.012ZM195.012 32.6H195.696C195.696 32.2 195.892 31.9 196.088 31.8C196.382 31.7 196.871 31.6 197.753 31.6C198.167 31.6 198.51 31.6365 198.781 31.6654C198.959 31.6843 199.106 31.7 199.222 31.7C199.516 31.7 199.712 31.8 199.908 31.9C200.006 32 200.103 32.1 200.201 32.3C200.299 32.5 200.299 32.9 200.299 33.3V33.9C200.201 33.6 200.006 33.4 199.712 33.3C199.516 33.2 198.83 33.1 197.753 33.1C197.067 33.1 196.48 33.1 196.088 33.2C195.794 33.3 195.5 33.4 195.304 33.5C195.01 33.7 194.814 34.2 194.814 34.8C194.814 35.1 194.814 35.4 194.912 35.6C195.01 35.8 195.108 36 195.304 36.1C195.5 36.3 195.794 36.4 196.088 36.4C196.382 36.5 196.969 36.5 197.851 36.5C198.732 36.5 199.32 36.5 199.614 36.4C199.908 36.4 200.201 36.1 200.299 35.8V36.5H201.083V33.2C201.083 32.7 201.083 32.3 200.985 32.1C200.887 31.8 200.789 31.7 200.593 31.5C200.397 31.3 200.103 31.2 199.712 31.1C199.32 31 198.732 31 197.851 31C197.436 31 197.094 31.0365 196.822 31.0654C196.645 31.0843 196.498 31.1 196.382 31.1C196.088 31.2 195.794 31.3 195.598 31.4C195.225 31.5903 195.03 31.9616 195.012 32.6ZM195.99 34.1C196.284 34 196.969 33.9 197.949 33.9C199.026 33.9 199.712 34 199.81 34.1C200.103 34.2 200.201 34.5 200.201 34.8C200.201 35.3 200.006 35.6 199.614 35.7C199.32 35.8 198.732 35.8 197.851 35.8H196.675C196.577 35.8 196.48 35.775 196.382 35.75C196.284 35.725 196.186 35.7 196.088 35.7C195.794 35.6 195.598 35.4 195.598 34.9C195.598 34.5 195.696 34.2 195.99 34.1Z" fill="#231F20"/>
<path id="Path_12" d="M206.861 36.5V29H207.743V35.7H213.522V36.5H206.861Z" fill="#231F20"/>
<path id="Shape_15" fill-rule="evenodd" clip-rule="evenodd" d="M215.188 32.6C215.187 32.6326 215.186 32.666 215.186 32.7V32.6H215.188ZM215.188 32.6H215.872C215.872 32.2 216.068 31.9 216.264 31.8C216.557 31.7 217.047 31.6 217.929 31.6C218.343 31.6 218.686 31.6365 218.957 31.6654C219.135 31.6843 219.282 31.7 219.398 31.7C219.692 31.7 219.887 31.8 220.083 31.9C220.181 32 220.279 32.1 220.377 32.3C220.475 32.5 220.475 32.9 220.475 33.3V33.9C220.377 33.6 220.181 33.4 219.887 33.3C219.692 33.2 219.006 33.1 217.929 33.1C217.243 33.1 216.655 33.1 216.264 33.2C215.97 33.3 215.676 33.4 215.48 33.5C215.186 33.7 214.99 34.2 214.99 34.8C214.99 35.1 214.99 35.4 215.088 35.6C215.186 35.8 215.284 36 215.48 36.1C215.676 36.3 215.97 36.4 216.264 36.4C216.557 36.5 217.145 36.5 218.027 36.5C218.908 36.5 219.496 36.5 219.79 36.4C220.083 36.4 220.377 36.1 220.475 35.8V36.5H221.259V33.2C221.259 32.7 221.259 32.3 221.161 32.1C221.063 31.8 220.965 31.7 220.769 31.5C220.573 31.3 220.279 31.2 219.887 31.1C219.496 31 218.908 31 218.027 31C217.612 31 217.269 31.0365 216.998 31.0654C216.821 31.0843 216.674 31.1 216.557 31.1C216.264 31.2 215.97 31.3 215.774 31.4C215.401 31.5903 215.206 31.9616 215.188 32.6ZM216.166 34.1C216.459 34 217.145 33.9 218.124 33.9C219.202 33.9 219.887 34 219.985 34.1C220.279 34.2 220.377 34.5 220.377 34.8C220.377 35.3 220.181 35.6 219.79 35.7C219.496 35.8 218.908 35.8 218.027 35.8H216.851C216.753 35.8 216.655 35.775 216.557 35.75C216.459 35.725 216.361 35.7 216.264 35.7C215.97 35.6 215.774 35.4 215.774 34.9C215.774 34.5 215.872 34.2 216.166 34.1Z" fill="#231F20"/>
<path id="Path_13" d="M223.609 36.5V31.2H224.393V32.3C224.589 31.8 224.785 31.5 225.176 31.3C225.568 31.1 226.156 31.1 227.135 31.1C227.723 31.1 228.115 31.1 228.409 31.2C228.898 31.3 229.29 31.5 229.486 31.8C229.682 32.1 229.78 32.6 229.78 33.2V36.5H228.996V33.2C228.996 32.7 228.898 32.3 228.703 32.2C228.507 32.1 228.311 32 228.017 31.9C227.723 31.8 227.331 31.8 226.842 31.8C225.862 31.8 225.274 31.9 224.883 32.2C224.491 32.4 224.295 32.9 224.295 33.4V36.5H223.609Z" fill="#231F20"/>
<path id="Shape_16" fill-rule="evenodd" clip-rule="evenodd" d="M237.91 36.5H238.596V29.1H237.813V32.1C237.617 31.8 237.421 31.5 237.029 31.4C236.735 31.3 236.147 31.2 235.266 31.2C234.482 31.2 233.895 31.2 233.503 31.3C233.013 31.4 232.719 31.5 232.524 31.7C232.328 31.9 232.132 32.2 232.034 32.5C231.936 32.9 231.838 33.3 231.838 33.9C231.838 34.5 231.936 35 232.034 35.3C232.132 35.6 232.328 35.9 232.524 36.1C232.817 36.3 233.111 36.4 233.503 36.5C233.895 36.6 234.482 36.6 235.266 36.6C236.147 36.6 236.735 36.5 237.127 36.4C237.519 36.3 237.715 36 237.91 35.7V36.5ZM233.895 31.9C234.189 31.8 234.776 31.8 235.462 31.8C236.05 31.8 236.539 31.8 236.931 31.9C237.225 32 237.519 32.1 237.617 32.2C237.91 32.5 238.008 33 238.008 33.9C238.008 34.7 237.91 35.2 237.715 35.5C237.617 35.7 237.323 35.8 237.029 35.9C236.735 36 236.147 36 235.462 36H235.462H235.462C234.776 36 234.287 36 233.993 35.9L233.993 35.9C233.699 35.8 233.405 35.7 233.307 35.6C233.013 35.3 232.915 34.8 232.915 33.9C232.915 33.1 233.013 32.6 233.209 32.3C233.307 32.1 233.601 32 233.895 31.9Z" fill="#231F20"/>
<path id="Shape_17" fill-rule="evenodd" clip-rule="evenodd" d="M244.473 29V36.4H245.354V33.4H250.349C250.511 33.4 250.673 33.4303 250.818 33.4576C250.937 33.4798 251.045 33.5 251.133 33.5C251.329 33.6 251.525 33.7 251.623 33.8C251.721 33.9 251.819 34 251.819 34.2C251.916 34.4 251.916 34.6 251.916 35V36.5H252.798V34.6C252.798 34.3 252.798 34.1 252.7 33.9C252.602 33.7 252.406 33.5 252.21 33.4C252.014 33.3 251.721 33.2 251.329 33.2C251.819 33.1 252.21 33 252.406 32.9C252.798 32.7 252.994 32.1 252.994 31.3C252.994 30.8 252.896 30.3 252.798 30C252.602 29.6 252.406 29.4 252.014 29.2C251.721 29.1 251.231 29 250.545 29H244.473ZM250.153 32.7H245.354V29.7H250.153C250.839 29.7 251.231 29.8 251.525 29.9C251.721 30.1 251.819 30.2 251.916 30.4C252.014 30.6 252.014 30.8 252.014 31.2C252.014 31.8 251.916 32.2 251.623 32.4C251.427 32.6 250.937 32.7 250.153 32.7Z" fill="#231F20"/>
<path id="Shape_18" fill-rule="evenodd" clip-rule="evenodd" d="M260.144 31.2C259.752 31.1 259.165 31.1 258.381 31.1C257.598 31.1 257.01 31.1 256.52 31.2C256.128 31.3 255.835 31.4 255.639 31.6C255.443 31.8 255.247 32.1 255.149 32.4C255.051 32.8 254.953 33.2 254.953 33.8C254.953 34.4 255.051 34.9 255.149 35.2C255.247 35.5 255.443 35.8 255.639 36C255.933 36.2 256.226 36.3 256.618 36.4C257.01 36.5 257.598 36.5 258.381 36.5C259.165 36.5 259.752 36.5 260.144 36.4C260.634 36.3 260.928 36.2 261.124 36C261.32 35.8 261.515 35.5 261.613 35.2C261.711 34.8 261.809 34.4 261.809 33.8C261.809 33.2 261.711 32.7 261.613 32.4C261.515 32.1 261.32 31.8 261.124 31.6C260.83 31.4 260.536 31.3 260.144 31.2ZM256.814 31.9C257.108 31.8 257.696 31.8 258.381 31.8C259.067 31.8 259.557 31.8 259.85 31.9C260.144 32 260.438 32.1 260.536 32.2C260.83 32.5 260.928 33 260.928 33.9C260.928 34.7 260.83 35.2 260.634 35.5C260.536 35.7 260.242 35.8 259.948 35.9C259.654 36 259.067 36 258.381 36H258.381H258.381C257.696 36 257.206 36 256.912 35.9C256.618 35.8 256.324 35.7 256.226 35.6C255.933 35.3 255.835 34.8 255.835 33.9C255.835 33.1 255.933 32.6 256.128 32.3C256.226 32.1 256.52 32 256.814 31.9Z" fill="#231F20"/>
<path id="Path_14" d="M262.984 31.2H263.866L266.51 36L269.155 31.2H270.036L267 36.5H265.923L262.984 31.2Z" fill="#231F20"/>
<path id="Shape_19" fill-rule="evenodd" clip-rule="evenodd" d="M271.995 34.8V34.1H277.676C277.676 33.5 277.676 33.1 277.578 32.8C277.578 32.5 277.48 32.2 277.284 32C276.99 31.7 276.696 31.5 276.305 31.4C275.913 31.3 275.227 31.2 274.346 31.2C273.562 31.2 272.975 31.2 272.583 31.3C272.191 31.4 271.897 31.5 271.701 31.7C271.505 31.9 271.309 32.2 271.212 32.5C271.114 32.9 271.016 33.3 271.016 33.9C271.016 34.5 271.114 35 271.212 35.3C271.309 35.6 271.505 35.9 271.701 36.1C271.995 36.3 272.289 36.4 272.681 36.5C273.072 36.6 273.66 36.6 274.444 36.6C275.227 36.6 275.913 36.6 276.305 36.5C276.696 36.4 277.088 36.2 277.284 36C277.48 35.7 277.676 35.4 277.676 34.9H276.892C276.794 35.3 276.599 35.6 276.305 35.7C276.011 35.8 275.325 35.9 274.444 35.9C273.66 35.9 273.072 35.9 272.779 35.8C272.387 35.6 272.093 35.3 271.995 34.8ZM276.794 32.4C276.892 32.6 276.99 32.9 276.99 33.3V33.4H271.897C271.938 33.2325 271.962 33.0825 271.983 32.95C272.012 32.7662 272.036 32.6162 272.093 32.5C272.191 32.3 272.289 32.1 272.485 32C272.681 31.9 272.877 31.8 273.17 31.8C273.464 31.7 273.856 31.7 274.444 31.7C275.227 31.7 275.815 31.7 276.109 31.8C276.403 31.9 276.696 32.1 276.794 32.4Z" fill="#231F20"/>
<path id="Path_15" d="M279.928 36.5V31.2H280.711V32.2C280.809 31.8 281.103 31.5 281.397 31.3C281.691 31.1 282.278 31.1 283.062 31.1C283.943 31.1 284.531 31.2 284.923 31.5C285.217 31.8 285.413 32.3 285.413 33.1V33.4H284.629V33.1C284.629 32.7 284.629 32.5 284.531 32.3C284.433 32.1 284.335 32 284.139 31.9C283.943 31.8 283.454 31.7 282.866 31.7C282.083 31.7 281.495 31.8 281.201 32.1C280.907 32.3 280.711 32.7 280.711 33.3V36.4H279.928V36.5Z" fill="#231F20"/>
</g>
<path id="Path_16" d="M0 21L11.5256 1H19.8718L31 21H24.2436L15.5994 5.46602L7.05449 21H0Z" fill="black"/>
<path id="Path_17" d="M34 21V1H40.1463V16.0485H54V21H34Z" fill="black"/>
<rect id="Rectangle" x="90" y="1" width="6" height="20" fill="black"/>
<path id="Shape_20" fill-rule="evenodd" clip-rule="evenodd" d="M123.719 0.298578C122.523 0.0995261 119.335 0 114.153 0C111.363 0 109.171 0.0995261 107.577 0.298578C104.388 0.597156 102.395 1.891 101.598 3.98104C101.399 4.67772 101.199 5.47393 101.1 6.27014C101 7.06635 101 8.45972 101 10.4502C101 13.0379 101.1 14.7299 101.299 15.6256C101.698 17.8152 102.694 19.3081 104.189 20.0047C104.986 20.4028 106.181 20.7014 107.477 20.8009C108.772 20.9005 111.263 21 114.851 21C118.238 21 120.73 20.9005 122.324 20.8009C125.712 20.5024 127.804 19.0095 128.502 16.3223C128.801 15.128 129 13.237 129 10.6493V7.66351C129 6.27014 128.801 5.17536 128.601 4.37915C128.402 3.48341 128.004 2.78673 127.505 2.18957C126.708 1.19431 125.413 0.597156 123.719 0.298578ZM110.765 5.07583C111.562 4.9763 112.957 4.9763 114.95 4.9763C117.441 4.9763 119.036 5.07583 119.932 5.17536C120.73 5.27488 121.327 5.37441 121.826 5.67299C122.224 5.97156 122.523 6.46919 122.722 7.06635C122.822 7.66351 122.922 8.75829 122.922 10.2512C122.922 12.1422 122.722 13.436 122.523 14.1327C122.324 14.8294 121.826 15.327 121.028 15.5261C120.936 15.5446 120.836 15.5666 120.73 15.5901C120.264 15.6928 119.666 15.8246 118.936 15.8246C118.039 15.9242 116.445 15.9242 114.153 15.9242C112.758 15.9242 111.562 15.9242 110.665 15.8246C108.972 15.7251 107.975 15.128 107.676 14.0332C107.477 13.3365 107.377 12.1422 107.377 10.3507C107.377 8.65877 107.477 7.56398 107.676 6.8673C107.875 6.17062 108.274 5.67299 108.872 5.47393C109.27 5.27488 109.968 5.17536 110.765 5.07583Z" fill="black"/>
<path id="Path_18" d="M134 21V1H143.929L156.34 16.2427L156.142 1H162V21H152.071L139.858 5.95146L139.957 21H134Z" fill="black"/>
<path id="Path_19" d="M196.659 13.8H199V14.7C199 15.9 198.902 16.9 198.805 17.5C198.61 18.1 198.415 18.7 198.024 19.2C197.634 19.7 197.146 20 196.659 20.3C196.073 20.5 195.39 20.7 194.415 20.8C192.951 21 190.512 21 187.098 21C183.488 21 180.951 20.9 179.683 20.6C178.317 20.4 177.341 19.9 176.561 19.1C175.878 18.4 175.488 17.5 175.293 16.4C175.098 15.3 175 13.3 175 10.5C175 8.3 175 6.8 175.098 5.8C175.195 4.8 175.39 4 175.683 3.3C176.366 1.5 177.927 0.5 180.268 0.3C181.732 0.1 184.659 0 188.951 0C191.488 0 193.244 0.1 194.415 0.2C195.488 0.4 196.366 0.7 197.049 1.1C197.732 1.6 198.22 2.2 198.415 3C198.707 3.8 198.805 5 198.902 6.6H196.561V6.1C196.561 5 196.463 4.2 196.171 3.7C195.878 3.2 195.39 2.8 194.707 2.6C194.122 2.4 193.244 2.3 192.171 2.2C191 2.1 189.439 2.1 187.293 2.1C184.366 2.1 182.22 2.2 181.146 2.4C179.976 2.6 179.195 2.9 178.707 3.4C178.317 3.9 178.024 4.6 177.829 5.5C177.732 6.5 177.634 8.1 177.634 10.5C177.634 12.9 177.732 14.5 177.829 15.5C177.927 16.5 178.22 17.2 178.707 17.6C179.195 18.1 179.976 18.5 181.049 18.6C182.122 18.8 184.073 18.8 186.902 18.8C190.805 18.8 193.341 18.7 194.61 18.4C195.39 18.2 195.976 17.9 196.366 17.4C196.659 16.9 196.854 16.1 196.854 15V13.8H196.659Z" fill="black"/>
<path id="Path_20" d="M215.597 2.16505L204.719 21H202L213.849 1H217.248L229 21H226.378L215.597 2.16505Z" fill="black"/>
<path id="Path_21" d="M82.5409 11.4808C81.9572 11 80.7899 10.7115 79.2335 10.6154C80.4981 10.4231 81.3735 10.1346 81.8599 9.75C82.7354 9.07692 83.1245 7.82692 83.1245 6.09615C83.1245 4.94231 82.93 3.98077 82.5409 3.30769C82.1518 2.63462 81.5681 2.05769 80.7899 1.67308C79.8171 1.19231 78.358 1 76.2179 1H59V5.42308H74.1751C75.1479 5.42308 75.7315 5.42308 76.0233 5.61538C76.7043 5.80769 77.0934 6.38462 77.0934 7.25C77.0934 8.01923 76.8016 8.5 76.3152 8.69231C76.0233 8.88461 75.3424 8.98077 74.3696 8.98077H59V12.9231H74.856C75.9261 12.9231 76.5097 12.9231 76.8016 13.1154C77.4825 13.4038 77.8716 13.8846 77.8716 14.75C77.8716 15.6154 77.5798 16.0962 76.8988 16.3846C76.607 16.4808 76.0233 16.5769 75.0506 16.5769H59V21H77.0934C79.2335 21 80.7899 20.8077 81.6654 20.3269C83.2218 19.5577 84 17.9231 84 15.6154C84 13.4038 83.5136 12.1538 82.5409 11.4808Z" fill="black"/>
<path id="Path_22" d="M268.769 1C268.769 1 265.982 1.09091 264.489 1.54545C263.493 1.81818 262.697 2.27273 262.1 2.90909L262 3H268.57H268.769H277.33H282.606H284V1H268.769V1Z" fill="black"/>
<path id="Path_23" d="M280.664 10.9382C279.204 10.2814 277.938 10.1876 271.611 10.0938C269.08 10.0938 267.522 10.0938 266.549 10H261L261.097 10.0938C261.389 10.4691 261.681 10.8443 262.168 11.1258C263.434 11.8763 264.894 12.1578 268.496 12.1578C277.257 12.2516 277.354 12.2516 278.619 12.533C279.885 12.9083 280.372 13.565 280.372 15.1599C280.372 18.2559 279.009 18.8188 271.416 18.8188C267.912 18.8188 262.363 18.8188 262.363 18.8188H261V20.9765C261 20.9765 274.044 21.0704 275.796 20.8827C277.841 20.7889 279.106 20.5075 280.08 20.1322C282.027 19.4755 283 17.8806 283 15.2537C283 13.0021 282.319 11.6887 280.664 10.9382Z" fill="black"/>
<path id="Path_24" d="M254.008 12.5942C253.311 12.3043 252.813 12.1111 251.419 12.0145C253.012 11.8213 253.71 11.7246 254.407 11.3382C255.502 10.6618 256 9.4058 256 7.08696C256 4.96135 255.602 3.41546 254.705 2.54589C253.61 1.38647 252.116 1 249.029 1H232V3.02899H234.49H235.087H247.834C252.216 3.02899 253.311 3.80193 253.311 6.99034C253.311 10.2754 252.216 11.0483 248.033 11.0483H234.49H232V21H234.49V12.9807H248.73C250.822 12.9807 251.618 13.1739 252.315 13.8502C252.913 14.43 253.112 15.2995 253.112 17.2319V21H255.602V15.7826C255.602 14.1401 255.104 13.2705 254.008 12.5942Z" fill="black"/>
</g>
</svg>
