<svg width="20" height="20" viewBox="0 0 20 20" fill="none" xmlns="http://www.w3.org/2000/svg">
<path fill-rule="evenodd" clip-rule="evenodd" d="M19.3873 14.9511L16.8549 12.9087C16.2737 12.4502 15.4434 12.4085 14.8622 12.867L12.7034 14.451C12.4543 14.6594 12.0807 14.6177 11.8316 14.3676L8.59349 11.4498L5.68748 8.19859C5.43839 7.9485 5.43839 7.61504 5.60445 7.32326L7.182 5.15577C7.63866 4.57222 7.59715 3.73857 7.14049 3.15502L5.10628 0.612391C4.48356 -0.137893 3.36267 -0.221257 2.65693 0.487344L0.498174 2.65483C0.166058 2.98829 0 3.4468 0 3.9053C0.207572 8.15691 2.11724 12.2001 4.94022 15.0345C7.7632 17.8689 11.7901 19.7863 16.0246 19.9947C16.4812 20.0364 16.9379 19.828 17.27 19.4945L19.4288 17.327C20.2175 16.7018 20.176 15.5347 19.3873 14.9511Z" fill="white"/>
<mask id="mask0_0_350" style="mask-type:luminance" maskUnits="userSpaceOnUse" x="0" y="0" width="20" height="20">
<path fill-rule="evenodd" clip-rule="evenodd" d="M19.3873 14.9511L16.8549 12.9087C16.2737 12.4502 15.4434 12.4085 14.8622 12.867L12.7034 14.451C12.4543 14.6594 12.0807 14.6177 11.8316 14.3676L8.59349 11.4498L5.68748 8.19859C5.43839 7.9485 5.43839 7.61504 5.60445 7.32326L7.182 5.15577C7.63866 4.57222 7.59715 3.73857 7.14049 3.15502L5.10628 0.612391C4.48356 -0.137893 3.36267 -0.221257 2.65693 0.487344L0.498174 2.65483C0.166058 2.98829 0 3.4468 0 3.9053C0.207572 8.15691 2.11724 12.2001 4.94022 15.0345C7.7632 17.8689 11.7901 19.7863 16.0246 19.9947C16.4812 20.0364 16.9379 19.828 17.27 19.4945L19.4288 17.327C20.2175 16.7018 20.176 15.5347 19.3873 14.9511Z" fill="white"/>
</mask>
<g mask="url(#mask0_0_350)">
</g>
</svg>
