<svg width="22" height="17" viewBox="0 0 22 17" fill="none" xmlns="http://www.w3.org/2000/svg">
<mask id="path-1-inside-1_0_348" fill="white">
<path fill-rule="evenodd" clip-rule="evenodd" d="M10.5514 10.7898C10.8273 11.0701 11.2411 11.0701 11.517 10.7898L21.9089 0.980892C22.0928 0.607219 22.0469 0 21.3111 0L0.757289 0.0467091C0.205508 0.0467091 -0.25431 0.56051 0.159526 1.0276L10.5514 10.7898ZM22 2.56941C22 2.10385 21.45 1.82451 21.0833 2.1504L12.9708 9.73911C12.4208 10.2512 11.7333 11.1794 11 11.1794C10.2667 11.1794 9.57917 10.2512 9.02917 9.78567L0.9625 2.1504C0.595833 1.82451 0.0458333 2.05729 0.0458333 2.56941C1.12249e-09 2.42974 1.12249e-09 15.1377 1.12249e-09 15.1377C1.12249e-09 16.162 0.825 17 1.83333 17H20.1667C21.175 17 22 16.162 22 15.1377V2.56941Z"/>
</mask>
<path fill-rule="evenodd" clip-rule="evenodd" d="M10.5514 10.7898C10.8273 11.0701 11.2411 11.0701 11.517 10.7898L21.9089 0.980892C22.0928 0.607219 22.0469 0 21.3111 0L0.757289 0.0467091C0.205508 0.0467091 -0.25431 0.56051 0.159526 1.0276L10.5514 10.7898ZM22 2.56941C22 2.10385 21.45 1.82451 21.0833 2.1504L12.9708 9.73911C12.4208 10.2512 11.7333 11.1794 11 11.1794C10.2667 11.1794 9.57917 10.2512 9.02917 9.78567L0.9625 2.1504C0.595833 1.82451 0.0458333 2.05729 0.0458333 2.56941C1.12249e-09 2.42974 1.12249e-09 15.1377 1.12249e-09 15.1377C1.12249e-09 16.162 0.825 17 1.83333 17H20.1667C21.175 17 22 16.162 22 15.1377V2.56941Z" fill="white"/>
<path d="M11.517 10.7898L10.8306 10.0626L10.8173 10.0752L10.8044 10.0883L11.517 10.7898ZM21.9089 0.980892L22.5953 1.7081L22.7265 1.58431L22.8061 1.42251L21.9089 0.980892ZM21.3111 0V-1L21.3089 -0.999997L21.3111 0ZM0.757289 0.0467091V1.04671L0.759562 1.04671L0.757289 0.0467091ZM0.159526 1.0276L-0.588961 1.69075L-0.558563 1.72506L-0.525154 1.75644L0.159526 1.0276ZM21.0833 2.1504L20.419 1.40296L20.4095 1.41142L20.4002 1.42011L21.0833 2.1504ZM12.9708 9.73911L13.6523 10.471L13.654 10.4694L12.9708 9.73911ZM9.02917 9.78567L8.34175 10.5119L8.3619 10.531L8.38308 10.5489L9.02917 9.78567ZM0.9625 2.1504L1.64992 1.42414L1.63854 1.41337L1.62683 1.40296L0.9625 2.1504ZM0.0458333 2.56941L-0.904316 2.88121L1.04583 2.56941H0.0458333ZM9.83878 11.4913C10.5064 12.1696 11.562 12.1696 12.2297 11.4913L10.8044 10.0883C10.8467 10.0453 10.9279 10 11.0342 10C11.1405 10 11.2217 10.0453 11.264 10.0883L9.83878 11.4913ZM12.2034 11.517L22.5953 1.7081L21.2225 0.253682L10.8306 10.0626L12.2034 11.517ZM22.8061 1.42251C22.986 1.0571 23.0978 0.507789 22.8817 -0.0253446C22.7651 -0.312891 22.5575 -0.575927 22.2543 -0.757397C21.9593 -0.933888 21.6304 -1 21.3111 -1V1C21.3598 1 21.3125 1.00979 21.2273 0.95883C21.1338 0.902891 21.0642 0.815014 21.0281 0.725982C20.9967 0.648375 20.9994 0.59376 21.0008 0.578489C21.0022 0.562397 21.0054 0.552066 21.0117 0.539275L22.8061 1.42251ZM21.3089 -0.999997L0.755017 -0.953288L0.759562 1.04671L21.3134 0.999997L21.3089 -0.999997ZM0.757289 -0.953291C0.196073 -0.953291 -0.378823 -0.69782 -0.720022 -0.2156C-0.898642 0.0368455 -1.01862 0.364628 -0.997646 0.733985C-0.976493 1.10644 -0.817182 1.43316 -0.588961 1.69075L0.908014 0.364452C0.929316 0.388496 0.990916 0.475833 0.999136 0.62058C1.00718 0.762229 0.959046 0.873983 0.912624 0.939591C0.835821 1.04814 0.766724 1.04671 0.757289 1.04671V-0.953291ZM-0.525154 1.75644L9.86673 11.5187L11.2361 10.061L0.844207 0.298758L-0.525154 1.75644ZM23 2.56941C23 1.3139 21.4845 0.455931 20.419 1.40296L21.7477 2.89784C21.605 3.02461 21.3968 3.03625 21.2493 2.96598C21.1154 2.90223 21 2.75558 21 2.56941H23ZM20.4002 1.42011L12.2877 9.00882L13.654 10.4694L21.7665 2.88069L20.4002 1.42011ZM12.2894 9.00725C12.1267 9.15877 11.9561 9.33878 11.8139 9.48629C11.6609 9.64503 11.5238 9.78446 11.389 9.90462C11.0771 10.1825 10.9674 10.1794 11 10.1794V12.1794C11.766 12.1794 12.3666 11.7122 12.7194 11.3979C12.9168 11.2221 13.1005 11.0334 13.254 10.8741C13.4184 10.7036 13.54 10.5755 13.6523 10.471L12.2894 9.00725ZM11 10.1794C11.0301 10.1794 10.9204 10.1806 10.6037 9.90392C10.4662 9.78384 10.3287 9.64756 10.1713 9.49095C10.0259 9.34622 9.84959 9.16998 9.67525 9.02241L8.38308 10.5489C8.48374 10.6341 8.59966 10.7485 8.7607 10.9087C8.9098 11.0571 9.09321 11.2401 9.28801 11.4103C9.63583 11.7141 10.2366 12.1794 11 12.1794V10.1794ZM9.71659 9.05941L1.64992 1.42414L0.27508 2.87666L8.34175 10.5119L9.71659 9.05941ZM1.62683 1.40296C0.624772 0.512327 -0.954167 1.18175 -0.954167 2.56941H1.04583C1.04583 2.70367 0.955023 2.87848 0.772774 2.95948C0.597904 3.03719 0.408396 2.99581 0.298171 2.89784L1.62683 1.40296ZM0.995982 2.25761C0.985641 2.22768 0.956448 2.15605 0.936529 2.11466C0.901704 2.05197 0.787996 1.89871 0.702823 1.81493C0.538842 1.69861 0.0938374 1.56944 -0.170779 1.59184C-0.378154 1.66221 -0.664905 1.86392 -0.752115 1.96434C-0.8746 2.12591 -0.914815 2.28632 -0.91786 2.29706C-0.931318 2.34454 -0.938407 2.38307 -0.941517 2.40097C-0.952234 2.46264 -0.955503 2.51756 -0.956068 2.52595C-0.958778 2.56616 -0.960502 2.61405 -0.9618 2.65808C-0.964572 2.7521 -0.967004 2.88826 -0.969209 3.05623C-0.973648 3.39433 -0.977424 3.88242 -0.980649 4.46879C-0.987105 5.64244 -0.991404 7.21936 -0.994269 8.79939C-0.997135 10.3797 -0.998567 11.9643 -0.999284 13.1537C-0.999642 13.7484 -0.999821 14.2444 -0.99991 14.5917C-0.999955 14.7654 -0.999978 14.9019 -0.999989 14.9949C-0.999994 15.0415 -0.999997 15.0772 -0.999999 15.1012C-0.999999 15.1133 -1 15.1224 -1 15.1285C-1 15.1316 -1 15.1339 -1 15.1354C-1 15.1362 -1 15.1368 -1 15.1372C-1 15.1373 -1 15.1375 -1 15.1376C-1 15.1377 -1 15.1377 1.12249e-09 15.1377C1 15.1377 1 15.1377 1 15.1376C1 15.1375 1 15.1374 1 15.1372C1 15.1368 1 15.1362 1 15.1354C1 15.1339 1 15.1316 1 15.1286C1 15.1225 1 15.1134 1 15.1013C1 15.0773 1.00001 15.0417 1.00001 14.9952C1.00002 14.9022 1.00004 14.7658 1.00009 14.5922C1.00018 14.2451 1.00036 13.7494 1.00072 13.1549C1.00143 11.9659 1.00286 10.3822 1.00573 8.80301C1.00859 7.2235 1.01289 5.6496 1.01932 4.47979C1.02254 3.89442 1.02628 3.41261 1.03062 3.08248C1.0328 2.91633 1.03507 2.7938 1.03733 2.71701C1.03855 2.67563 1.03943 2.66009 1.03941 2.66041C1.03933 2.66152 1.03891 2.66782 1.03797 2.67743C1.03739 2.68334 1.0349 2.70916 1.02895 2.74338C1.02619 2.75928 1.01945 2.7962 1.00634 2.84245C1.00365 2.85196 0.963783 3.01151 0.84165 3.17261C0.754617 3.2728 0.468041 3.47438 0.260843 3.54471C-0.00359572 3.56707 -0.448423 3.43795 -0.612226 3.32179C-0.697222 3.23816 -0.810752 3.08516 -0.845398 3.02281C-0.865139 2.98178 -0.894153 2.9106 -0.904316 2.88121L0.995982 2.25761ZM-1 15.1377C-1 16.6994 0.258014 18 1.83333 18V16C1.39199 16 1 15.6245 1 15.1377H-1ZM1.83333 18H20.1667V16H1.83333V18ZM20.1667 18C21.742 18 23 16.6995 23 15.1377H21C21 15.6245 20.608 16 20.1667 16V18ZM23 15.1377V2.56941H21V15.1377H23Z" fill="#535353" mask="url(#path-1-inside-1_0_348)"/>
</svg>
