<svg width="17" height="22" viewBox="0 0 17 22" fill="none" xmlns="http://www.w3.org/2000/svg">
<path fill-rule="evenodd" clip-rule="evenodd" d="M8.5 0C3.80263 0 0 3.89178 0 8.74506C0 14.7888 6.08421 20.3288 7.96316 21.794C8.27632 22.0687 8.72368 22.0687 9.08158 21.794C10.9605 20.283 17 14.7888 17 8.74506C17 3.89178 13.1974 0 8.5 0ZM8.5 12.3621C6.53158 12.3621 4.92105 10.7138 4.92105 8.69927C4.92105 6.6847 6.53158 5.03642 8.5 5.03642C10.4684 5.03642 12.0789 6.6847 12.0789 8.69927C12.0789 10.7138 10.4684 12.3621 8.5 12.3621Z" fill="white"/>
</svg>
